# xmcd CD database file
#
# Track frame offsets:
#	150
#	9623
#	29314
#	52052
#	81136
#	97991
#	121939
#	151195
#	167618
#	199734
#	216164
#	239997
#	249589
#
# Disc length: 3533 seconds
#
# Revision: 2
# Processed by: cddbd v1.5.1PL2 Copyright (c) Steve Scherf et al.
# Submitted via: CDex 1.51
#
DISCID=ab0dcb0d
DTITLE=Al Jarreau - Sunshine
DYEAR=2002
DGENRE=Jazz
TTITLE0=Ain't No Sunshine  (by Bill Withers)
TTITLE1=Lean On Me  (by Bill Withers)
TTITLE2=Loving You
TTITLE3=Rainbow In Your Eyes  (by Leon Russell)
TTITLE4=Kissing Me Love  (by Bill Withers)
TTITLE5=You  (by Bill Withers)
TTITLE6=One Good Turn
TTITLE7=Lonely Town, Lonely Street  (by Bill Withers)
TTITLE8=We Got By
TTITLE9=Use Me  (by Bill Withers)
TTITLE10=Letter Perfect
TTITLE11=Grandma's Hands  (by Bill Withers)
TTITLE12=Same Love That Made Me Laugh  (by Bill Withers)
EXTD=YEAR: 2002
EXTT0=
EXTT1=
EXTT2=
EXTT3=
EXTT4=
EXTT5=
EXTT6=
EXTT7=
EXTT8=
EXTT9=
EXTT10=
EXTT11=
EXTT12=
PLAYORDER=
